<?xml version="1.0" standalone="no"?>
<!DOCTYPE svg PUBLIC "-//W3C//DTD SVG 20010904//EN"
 "http://www.w3.org/TR/2001/REC-SVG-20010904/DTD/svg10.dtd">
<svg version="1.0" xmlns="http://www.w3.org/2000/svg"
 width="664.000000pt" height="313.000000pt" viewBox="0 0 664.000000 313.000000"
 preserveAspectRatio="xMidYMid meet">

<g transform="translate(0.000000,313.000000) scale(0.100000,-0.100000)"
fill="#000000" stroke="none">
<path d="M0 3088 c0 -23 1 -39 3 -37 2 2 13 21 25 42 l21 37 -24 0 c-23 0 -25
-4 -25 -42z"/>
<path d="M3392 1768 c-44 -21 -42 -96 4 -116 43 -20 78 3 82 54 2 25 -2 45
-10 51 -22 18 -52 22 -76 11z"/>
<path d="M732 1526 c-24 -8 -59 -22 -78 -31 -31 -15 -35 -20 -29 -43 10 -41
17 -43 72 -22 78 30 170 35 212 13 51 -27 71 -60 74 -123 l2 -55 -60 -8 c-271
-36 -335 -78 -335 -218 0 -52 5 -73 23 -100 69 -102 229 -107 340 -10 l36 32
6 -28 c11 -49 20 -58 60 -58 l39 0 -2 220 c-2 121 -5 240 -9 265 -8 62 -36
114 -80 147 -33 26 -44 28 -132 30 -61 2 -112 -3 -139 -11z m258 -403 c0 -55
-2 -58 -49 -104 -78 -75 -185 -90 -231 -32 -21 28 -26 82 -10 113 24 46 116
76 238 79 l52 1 0 -57z"/>
<path d="M2074 1510 c-110 -62 -159 -168 -152 -324 6 -143 62 -241 168 -297
61 -31 211 -39 294 -15 50 15 56 19 56 44 0 50 -9 54 -89 37 -101 -21 -139
-19 -199 11 -56 28 -105 90 -123 157 -20 75 -30 72 219 75 l222 2 0 50 c0 108
-66 225 -152 268 -35 17 -62 22 -119 22 -64 0 -81 -4 -125 -30z m190 -64 c44
-18 86 -76 93 -126 l6 -40 -167 0 c-187 0 -183 -2 -147 75 40 88 131 126 215
91z"/>
<path d="M3925 1521 c-103 -47 -164 -147 -173 -283 -10 -174 63 -308 195 -358
66 -25 196 -27 271 -5 47 14 52 19 52 44 0 45 -17 51 -85 35 -115 -27 -184
-14 -251 48 -45 41 -72 98 -76 158 l-3 35 223 3 222 2 0 55 c0 110 -65 221
-154 264 -55 27 -164 28 -221 2z m190 -85 c33 -22 73 -84 77 -121 l3 -30 -167
-3 c-187 -3 -182 -5 -153 65 21 50 42 72 90 95 47 22 111 19 150 -6z"/>
<path d="M4715 1524 c-16 -8 -49 -37 -72 -62 l-43 -47 -1 35 c-1 19 -3 40 -4
45 -2 6 -3 16 -4 23 -1 7 -17 12 -46 12 l-45 0 2 -327 3 -328 37 -3 c27 -2 39
1 46 15 5 10 10 108 11 218 2 215 2 215 60 274 57 59 142 79 214 52 23 -9 29
-7 41 12 44 70 26 89 -87 94 -61 3 -90 -1 -112 -13z"/>
<path d="M5240 1526 c-33 -12 -35 -16 -32 -52 4 -53 15 -61 57 -45 19 6 58 12
87 13 45 0 56 -4 76 -28 21 -25 24 -35 19 -85 -7 -78 -42 -139 -154 -267 -87
-100 -93 -110 -91 -147 l3 -40 180 0 180 0 3 48 3 47 -115 0 c-64 0 -116 3
-116 7 0 3 26 36 58 72 130 149 156 199 157 302 0 68 -3 79 -29 113 -40 53
-95 76 -181 75 -38 0 -86 -6 -105 -13z"/>
<path d="M5792 1529 c-32 -10 -33 -11 -30 -57 3 -46 4 -47 33 -44 143 15 152
14 174 -9 21 -22 27 -62 15 -94 -8 -21 -55 -45 -107 -53 -41 -7 -42 -9 -45
-49 -3 -41 -3 -42 35 -48 82 -13 91 -17 110 -38 45 -49 35 -122 -22 -157 -39
-24 -82 -26 -132 -5 -56 24 -68 20 -80 -27 -10 -37 -10 -45 4 -55 25 -20 121
-35 172 -28 171 23 255 213 145 326 l-36 37 36 47 c95 124 0 267 -176 264 -35
0 -78 -5 -96 -10z"/>
<path d="M1250 1490 c0 -43 6 -47 84 -52 l38 -3 2 -225 c1 -203 3 -229 21
-264 31 -61 64 -80 148 -84 50 -2 90 2 132 15 53 17 60 22 63 47 2 16 0 32 -5
37 -5 5 -42 2 -85 -8 -90 -19 -128 -9 -159 41 -17 28 -19 53 -19 238 l0 207
106 3 c117 3 133 11 120 61 l-6 27 -220 0 -220 0 0 -40z"/>
<path d="M2680 1491 c0 -47 8 -51 101 -51 l69 0 2 -282 3 -283 110 -3 c148 -4
157 -1 153 46 l-3 37 -82 3 -83 3 -2 282 -3 282 -132 3 -133 3 0 -40z"/>
<path d="M3180 1491 c0 -48 7 -51 111 -51 l79 0 2 -282 3 -283 45 0 45 0 3
328 2 327 -145 0 -145 0 0 -39z"/>
</g>
</svg>
